<svg width="26" height="26" viewBox="0 0 26 26" fill="none" xmlns="http://www.w3.org/2000/svg">
<path d="M9.9742 8.00098H6.54838C5.3816 8.00098 4.79778 8.00098 4.35213 8.22805C3.96013 8.42778 3.64165 8.74626 3.44191 9.13826C3.21484 9.58391 3.21484 10.1677 3.21484 11.3345V17.1678C3.21484 18.3346 3.21484 18.9172 3.44191 19.3628C3.64165 19.7548 3.96013 20.0744 4.35213 20.2741C4.79735 20.501 5.38046 20.501 6.54496 20.501H18.6347C19.7992 20.501 20.3815 20.501 20.8267 20.2741C21.2187 20.0744 21.5383 19.7548 21.738 19.3628C21.9648 18.9176 21.9648 18.3354 21.9648 17.1709V11.3311C21.9648 10.1666 21.9648 9.58348 21.738 9.13826C21.5383 8.74626 21.2187 8.42778 20.8267 8.22805C20.3811 8.00098 19.7985 8.00098 18.6317 8.00098H15.2053M9.9742 8.00098H10.0386M9.9742 8.00098C9.98724 8.00098 10.001 8.00098 10.0154 8.00098L10.0386 8.00098M9.9742 8.00098C9.86365 8.00093 9.80171 8.00036 9.75273 7.99487C9.14066 7.92634 8.72087 7.34376 8.84941 6.74143C8.86137 6.68538 8.88501 6.61446 8.93183 6.47402L8.93384 6.46807C8.98731 6.30767 9.01404 6.22747 9.04357 6.1567C9.34595 5.43211 10.0307 4.93934 10.8137 4.88161C10.8902 4.87598 10.9742 4.87598 11.1433 4.87598H14.0363C14.2054 4.87598 14.2901 4.87598 14.3666 4.88161C15.1496 4.93934 15.8336 5.43211 16.136 6.1567C16.1655 6.22747 16.1924 6.30758 16.2458 6.46798C16.294 6.61242 16.3181 6.68468 16.3302 6.74153C16.4588 7.34386 16.0396 7.92634 15.4276 7.99487C15.3786 8.00036 15.316 8.00093 15.2053 8.00098M10.0386 8.00098H15.1409M15.1409 8.00098H15.2053M15.1409 8.00098L15.164 8.00098C15.1785 8.00098 15.1922 8.00098 15.2053 8.00098M12.5898 17.376C10.864 17.376 9.46484 15.9769 9.46484 14.251C9.46484 12.5251 10.864 11.126 12.5898 11.126C14.3157 11.126 15.7148 12.5251 15.7148 14.251C15.7148 15.9769 14.3157 17.376 12.5898 17.376Z" stroke="#8B8B8B" stroke-width="1.5" stroke-linecap="round" stroke-linejoin="round"/>
</svg>
