<svg width="16" height="16" viewBox="0 0 16 16" fill="none" xmlns="http://www.w3.org/2000/svg">
<path d="M8.17985 4.3126L1.51318 10.9793V14.3126L4.84652 14.3126L11.5132 7.64592M8.17985 4.3126L10.5704 1.92205L10.5718 1.92063C10.9009 1.59157 11.0657 1.42674 11.2557 1.365C11.4231 1.31062 11.6034 1.31062 11.7708 1.365C11.9606 1.4267 12.1253 1.59134 12.4539 1.91994L13.9037 3.36977C14.2337 3.69978 14.3988 3.86487 14.4606 4.05514C14.515 4.22251 14.515 4.4028 14.4606 4.57016C14.3988 4.7603 14.234 4.92514 13.9044 5.25468L13.9037 5.25539L11.5132 7.64592M8.17985 4.3126L11.5132 7.64592" stroke="black" stroke-width="1.5" stroke-linecap="round" stroke-linejoin="round"/>
</svg>
